<?xml version="1.0" encoding="UTF-8"?>
<svg width="63px" height="63px" viewBox="0 0 63 63" version="1.1" xmlns="http://www.w3.org/2000/svg" xmlns:xlink="http://www.w3.org/1999/xlink">
    <!-- Generator: Sketch 48.2 (47327) - http://www.bohemiancoding.com/sketch -->
    <title>Page 1</title>
    <desc>Created with Sketch.</desc>
    <defs>
        <polygon id="path-1" points="0 1.0003 62.6567 1.0003 62.6567 63.6603 0 63.6603"></polygon>
    </defs>
    <g id="Page-1" stroke="none" stroke-width="1" fill="none" fill-rule="evenodd">
        <g transform="translate(0.000000, -1.000000)">
            <g id="Group-3" transform="translate(0.000000, 0.660700)"></g>
            <mask id="mask-2" fill="white">
                <use xlink:href="#path-1"></use>
            </mask>
            <g id="Clip-2"></g>
            <path d="M62.6567,32.3283 C62.6567,49.6363 48.6317,63.6603 31.3287,63.6603 C14.0257,63.6603 -0.0003,49.6363 -0.0003,32.3283 C-0.0003,15.0273 14.0257,1.0003 31.3287,1.0003 C48.6317,1.0003 62.6567,15.0273 62.6567,32.3283 Z M14.1944,33.5178 C14.1944,34.6688 14.3954,35.7478 14.7944,36.7518 C15.1954,37.7588 15.7584,38.6458 16.4784,39.4158 C17.1934,40.1858 18.0474,40.7908 19.0324,41.2328 C20.0164,41.6758 21.0964,41.8958 22.2634,41.8958 C23.0274,41.8958 23.7614,41.7978 24.4704,41.6028 C25.1734,41.4068 25.8244,41.1308 26.4114,40.7728 C26.9944,40.4118 27.5024,39.9908 27.9324,39.5088 C28.3664,39.0278 28.6944,38.4968 28.9204,37.9208 L26.8854,37.3068 C26.7634,37.6748 26.5464,38.0258 26.2384,38.3538 C25.9304,38.6818 25.5624,38.9748 25.1294,39.2318 C24.7004,39.4888 24.2324,39.6878 23.7264,39.8308 C23.2284,39.9748 22.7204,40.0458 22.2064,40.0458 C21.4034,40.0458 20.6504,39.8768 19.9424,39.5388 C19.2324,39.2008 18.6114,38.7388 18.0784,38.1528 C17.5444,37.5668 17.1234,36.8738 16.8134,36.0748 C16.5034,35.2738 16.3504,34.4218 16.3504,33.5178 C16.3504,32.5938 16.5014,31.7428 16.8004,30.9628 C17.0964,30.1818 17.5054,29.5078 18.0314,28.9448 C18.5554,28.3798 19.1714,27.9318 19.8774,27.6048 C20.5884,27.2738 21.3514,27.1108 22.1734,27.1108 C23.1614,27.1108 24.0544,27.3418 24.8534,27.8058 C25.6534,28.2668 26.2804,28.9088 26.7314,29.7298 L28.7664,29.0848 C28.1894,27.9118 27.3404,26.9838 26.2094,26.2958 C25.0784,25.6068 23.7534,25.2628 22.2364,25.2628 C21.0434,25.2628 19.9584,25.4818 18.9704,25.9108 C17.9854,26.3418 17.1384,26.9318 16.4294,27.6818 C15.7214,28.4308 15.1704,29.3088 14.7854,30.3158 C14.3904,31.3198 14.1944,32.3888 14.1944,33.5178 Z M38.4654,40.0455 C37.6224,40.0455 36.8404,39.8745 36.1094,39.5235 C35.3794,39.1745 34.7504,38.7085 34.2154,38.1215 C33.6824,37.5385 33.2624,36.8535 32.9524,36.0745 C32.6444,35.2935 32.4884,34.4735 32.4884,33.6095 C32.4884,32.7885 32.6304,31.9875 32.9074,31.2095 C33.1874,30.4275 33.5684,29.7355 34.0624,29.1305 C34.5544,28.5245 35.1534,28.0355 35.8634,27.6645 C36.5734,27.2975 37.3574,27.1105 38.2184,27.1105 C38.7754,27.1105 39.3334,27.2155 39.9004,27.4195 C40.4634,27.6265 40.9964,27.9125 41.5024,28.2825 C42.0024,28.6515 42.4574,29.0785 42.8564,29.5605 C43.2554,30.0415 43.5574,30.5615 43.7654,31.1165 L43.7654,36.0745 C43.6814,36.6295 43.4584,37.1485 43.0854,37.6295 C42.7134,38.1115 42.2794,38.5325 41.7764,38.8945 C41.2714,39.2525 40.7294,39.5335 40.1464,39.7395 C39.5564,39.9455 38.9984,40.0455 38.4654,40.0455 Z M38.0354,41.8955 C39.2034,41.8955 40.3304,41.5875 41.4094,40.9725 C42.4844,40.3555 43.3544,39.5235 44.0124,38.4765 L44.0124,40.1715 C44.0124,40.5805 44.1744,40.9345 44.5044,41.2325 C44.8334,41.5305 45.2544,41.6785 45.7684,41.6785 C45.9714,41.6785 46.2464,41.6505 46.5964,41.5875 L46.5964,39.7395 C46.1044,39.7395 45.8584,39.4525 45.8584,38.8775 L45.8584,19.1045 L43.7654,19.1045 L43.7654,28.8975 C43.1474,27.8925 42.3144,27.0345 41.2684,26.3275 C40.2214,25.6175 39.0214,25.2625 37.6654,25.2625 C36.5984,25.2625 35.6174,25.4835 34.7244,25.9275 C33.8344,26.3675 33.0604,26.9695 32.4134,27.7285 C31.7684,28.4865 31.2594,29.3745 30.8884,30.3925 C30.5194,31.4075 30.3334,32.4825 30.3334,33.6095 C30.3334,34.6975 30.5244,35.7395 30.9054,36.7375 C31.2844,37.7325 31.8174,38.6105 32.5064,39.3685 C33.1944,40.1295 34.0124,40.7405 34.9554,41.2015 C35.9024,41.6645 36.9254,41.8955 38.0354,41.8955 Z" id="Combined-Shape" fill="#CC3333" mask="url(#mask-2)"></path>
        </g>
    </g>
</svg>